<?xml version="1.0" encoding="iso-8859-1"?>
<!-- Generator: Adobe Illustrator 19.0.0, SVG Export Plug-In . SVG Version: 6.00 Build 0)  -->
<svg xmlns="http://www.w3.org/2000/svg" xmlns:xlink="http://www.w3.org/1999/xlink" version="1.1" id="Layer_1" x="0px" y="0px" viewBox="0 0 511.998 511.998" style="enable-background:new 0 0 511.998 511.998;" xml:space="preserve">
<g>
	<g>
		<g>
			<path d="M422.777,6.777c-5.071-1.702-10.302-3.103-15.545-4.165c-5.417-1.092-10.69,2.403-11.786,7.816s2.403,10.69,7.816,11.786     c4.438,0.898,8.864,2.084,13.155,3.523c1.055,0.354,2.127,0.522,3.182,0.522c4.179,0,8.077-2.641,9.479-6.821     C430.834,14.202,428.013,8.533,422.777,6.777z"/>
			<path d="M328.214,13.525c-4.616,2.65-9.165,5.753-13.521,9.221c-4.32,3.44-5.034,9.732-1.594,14.052     c1.975,2.479,4.889,3.771,7.83,3.771c2.183,0,4.382-0.712,6.222-2.178c3.57-2.842,7.278-5.373,11.021-7.522     c4.789-2.75,6.443-8.862,3.693-13.651C339.115,12.429,333.003,10.775,328.214,13.525z"/>
			<path d="M375.207,0.138c-5.538,0.263-10.985,0.911-16.19,1.928c-5.42,1.059-8.957,6.311-7.898,11.731     c0.932,4.773,5.116,8.085,9.804,8.085c0.635,0,1.28-0.061,1.927-0.188c4.256-0.831,8.733-1.362,13.305-1.579     c5.516-0.261,9.777-4.945,9.515-10.462C385.408,4.137,380.738-0.134,375.207,0.138z"/>
			<path d="M488.264,102.005c1.178,4.366,2.097,8.856,2.729,13.345c0.704,4.996,4.986,8.606,9.89,8.606     c0.464,0,0.935-0.033,1.407-0.099c5.469-0.771,9.278-5.829,8.507-11.298c-0.747-5.302-1.832-10.606-3.224-15.765     c-1.439-5.331-6.927-8.489-12.26-7.049C489.981,91.184,486.826,96.672,488.264,102.005z"/>
			<path d="M502.305,133.634c-5.541-0.256-10.188,4.032-10.431,9.549c-0.22,4.978-0.647,9.458-1.305,13.697     c-0.847,5.457,2.889,10.568,8.347,11.416c0.52,0.081,1.037,0.12,1.547,0.12c4.845,0,9.103-3.529,9.869-8.467     c0.772-4.97,1.27-10.166,1.522-15.883C512.098,138.548,507.823,133.878,502.305,133.634z"/>
			<path d="M496.089,177.679c-5.092-2.138-10.953,0.255-13.092,5.347c-1.704,4.058-3.723,8.313-6,12.646     c-2.569,4.889-0.688,10.935,4.201,13.504c1.484,0.779,3.075,1.149,4.643,1.149c3.597,0,7.072-1.946,8.86-5.35     c2.543-4.84,4.809-9.619,6.735-14.204C503.574,185.679,501.181,179.818,496.089,177.679z"/>
			<path d="M464.711,30.16c-4.115-3.416-8.48-6.61-12.976-9.494c-4.648-2.982-10.834-1.63-13.816,3.018     c-2.982,4.648-1.63,10.834,3.018,13.816c3.811,2.444,7.511,5.152,11,8.048c1.867,1.55,4.131,2.306,6.382,2.306     c2.872,0,5.723-1.231,7.699-3.612C469.545,39.993,468.961,33.688,464.711,30.16z"/>
			<path d="M486.724,81.932c1.655,0,3.333-0.412,4.879-1.278c4.818-2.7,6.535-8.794,3.835-13.612     c-2.612-4.662-5.543-9.212-8.711-13.525c-3.27-4.452-9.528-5.409-13.979-2.14c-4.452,3.269-5.41,9.528-2.14,13.979     c2.685,3.656,5.169,7.512,7.383,11.463C479.825,80.091,483.223,81.932,486.724,81.932z"/>
		</g>
	</g>
</g>
<g>
	<g>
		<path d="M476.045,217.466c-1.568-1.06-3.965-1.69-5.006-1.917c-3.233-7.065-2.258-18.111-0.677-25.47    c0.855-3.978,2.25-7.815,0.263-11.702c-2.147-4.2-5.994-5.035-10.285-5.77c-13.65-2.338-26.296-9.577-35.31-20.076    c-4.781-5.569-8.53-12.013-10.999-18.925c-2.73-7.643-2.657-14.85-3.496-22.726c-0.457-4.29-3.732-7.884-7.96-8.741    c-2.05-0.416-4.179-0.055-6.257-0.258c-6.906-0.673-13.347-4.364-17.442-9.96c-1.924-2.628-2.904-5.941-5.611-7.947    c-3.215-2.382-6.689-1.791-10.386-1.367c-4.502,0.517-9.067,0.519-13.568,0.003c-8.041-0.921-15.871-3.498-22.899-7.508    c-7.031-4.012-13.234-9.443-18.129-15.891c-0.248-0.327-0.58-0.795-0.628-1.115c0.2-0.382,0.605-0.857,0.815-1.146    c1.953-2.688,1.582-6.025,1.134-7.74c-0.934-3.577-3.87-6.414-7.478-7.222c-3.562-0.799-7.333,0.451-9.737,3.19    c-3.298,3.758-6.265,7.86-9.271,11.851c-3.081,4.09-6.11,8.22-9.277,12.244c-2.778,3.531-5.651,7.055-8.975,10.094    c-2.2,2.011-4.886,4.19-7.95,4.576c-2.866,0.36-5.553-1.283-7.718-2.976c-3.28-2.566-6.049-5.78-8.681-8.985    c-3.136-3.819-6.082-7.791-9.043-11.746c-6.89-9.202-13.893-18.343-21.929-26.589c-9.718-9.97-20.965-18.582-33.673-24.38    c-13.242-6.042-27.768-8.961-42.288-9.244C76.483-1.09,23.821,36.589,6.357,90.96c-5.148,16.028-6.668,32.886-6.116,49.651    c0.255,7.75,0.922,15.5,2.359,23.125c1.375,7.3,3.423,14.466,6.007,21.427c5.171,13.933,12.431,27.017,20.449,39.494    c5.652,8.794,11.682,17.354,18.054,25.64c9.098,11.828,17.707,23.344,23.87,37.034c6.11,13.571,10.408,27.871,14.25,42.223    c8.158,30.477,13.503,61.601,20.324,92.384c3.751,16.928,7.857,33.903,14.133,50.099c3.551,9.163,7.88,18.167,14.291,25.702    c3.921,4.609,8.643,8.612,14.162,11.167c5.91,2.736,12.489,3.588,18.931,2.78c14.041-1.761,24.64-11.762,32.093-23.173    c10.138-15.523,15.992-33.698,21.28-51.324c6.468-21.56,11.446-43.628,19.322-64.747c2.102-5.637,4.536-11.194,7.816-16.255    c1.582-2.442,3.505-5.141,6.14-6.54c1.941-1.031,3.862-0.688,5.623,0.542c2.668,1.865,4.59,4.802,6.227,7.554    c2.25,3.784,4.066,7.819,5.711,11.897c3.414,8.463,6.096,17.214,8.651,25.967c5.631,19.289,10.458,38.831,17.014,57.84    c2.997,8.689,6.35,17.292,10.548,25.478c3.74,7.292,8.197,14.35,13.935,20.244c4.555,4.68,9.981,8.564,16.172,10.746    c6.002,2.116,12.661,2.664,18.912,1.439c12.14-2.378,21.247-11.518,27.524-21.7c5.634-9.14,9.433-19.419,12.688-29.604    c5.758-18.016,9.692-36.591,13.536-55.091c5.384-25.913,10.294-51.97,17.26-77.521c6.594-24.18,14.957-48.094,30.589-68.008    c5.668-7.221,11.19-14.56,16.47-22.069c1.399-1.989,2.816-3.975,4.147-6.011c0.957-1.463,1.561-3.107,1.69-4.857    C480.679,222.95,478.99,219.457,476.045,217.466z M453.811,232.28c-1.32,1.56-8.321,10.897-13.558,17.494    c-7.85,9.892-13.816,21.179-18.737,32.77c-5.543,13.052-9.809,26.621-13.507,40.297c-8.056,29.79-13.393,60.21-19.937,90.345    c-3.055,14.066-6.307,28.141-10.73,41.849c-1.829,5.67-3.867,11.29-6.373,16.698c-1.995,4.307-4.29,8.547-7.263,12.265    c-2.284,2.856-5.065,5.49-8.482,6.915c-3.229,1.346-6.825,1.364-10.144,0.315c-8.549-2.703-14.213-11.305-18.307-18.74    c-6.002-10.9-10.133-22.811-13.879-34.638c-4.175-13.183-7.724-26.552-11.478-39.858c-3.679-13.043-7.43-26.175-12.763-38.658    c-3.916-9.166-8.89-18.859-16.997-25.027c-6.904-5.252-16.158-6.818-24.344-3.779c-8.822,3.275-14.817,11.295-19.19,19.262    c-8.392,15.29-12.953,32.537-17.65,49.228c-4.887,17.366-9.371,34.911-15.568,51.872c-3.383,9.259-7.205,18.569-12.636,26.838    c-2.474,3.767-5.351,7.394-8.946,10.156c-3.008,2.311-6.565,3.922-10.395,4.086c-3.414,0.147-6.638-1.006-9.384-2.999    c-3.301-2.395-5.859-5.72-8.008-9.148c-2.774-4.425-4.953-9.211-6.875-14.058c-4.972-12.539-8.353-25.701-11.443-38.808    c-7.647-32.435-13.068-65.358-21.341-97.651c-4.025-15.711-8.713-31.306-14.983-46.281c-6.262-14.957-14.747-27.871-24.679-40.62    c-6.204-7.963-12.131-16.148-17.714-24.558c-8.303-12.506-15.936-25.656-21.234-39.742c-2.666-7.087-4.658-14.41-5.803-21.897    c-1.194-7.809-1.394-15.723-1.367-23.609c0.1-29.677,11.008-58.167,31.913-79.415c20.507-20.842,48.967-33.005,78.233-33.18    c14.654-0.087,29.246,3.001,42.155,10.063c12.588,6.886,22.943,16.912,32.017,27.907c2.307,2.795,4.542,5.649,6.739,8.531    c3.663,4.805,7.219,9.692,10.935,14.457c4.105,5.263,8.42,10.472,13.543,14.785c4.426,3.725,9.552,6.694,15.289,7.774    c5.802,1.093,11.834,0.277,17.169-2.228c5.303-2.489,9.804-6.409,13.802-10.632c4.754-5.021,8.925-10.568,13.069-16.091    c11.444,13.535,27.35,23.042,44.692,26.707c4.34,0.917,8.756,1.471,13.188,1.652c2.325,0.095,8.044-0.077,8.575-0.113    c0.727-0.049,0.743,0.114,1.176,0.712c0.663,0.915,1.361,1.805,2.092,2.667c5.676,6.695,13.321,11.64,21.754,14.07    c0.986,0.284,4.349,0.878,4.499,1.046c0.193,0.217,0.741,5.698,1.13,7.667c0.786,3.977,1.876,7.893,3.258,11.703    c2.722,7.504,6.577,14.59,11.386,20.959c9.599,12.715,22.957,22.442,38.045,27.579c1.183,0.403,2.375,0.777,3.576,1.124    c0.877,0.253,1.657,0.156,1.525,1.211c-0.351,2.789-0.553,5.597-0.607,8.408c-0.1,5.21,0.297,10.432,1.203,15.563    c0.732,4.145,1.717,8.36,3.191,12.309c0.292,0.781,0.88,1.589,1.039,2.4C454.836,231.03,454.292,231.711,453.811,232.28z"/>
	</g>
</g>
<g>
</g>
<g>
</g>
<g>
</g>
<g>
</g>
<g>
</g>
<g>
</g>
<g>
</g>
<g>
</g>
<g>
</g>
<g>
</g>
<g>
</g>
<g>
</g>
<g>
</g>
<g>
</g>
<g>
</g>
</svg>
